<?xml version="1.0" encoding="UTF-8"?>
<svg xmlns="http://www.w3.org/2000/svg" viewBox="0 0 1920 1080" width="1920" height="1080" role="img" aria-label="Mooswald Mittelgrund">
  <title>Mooswald Mittelgrund</title>
  <desc>Pomodoro DnD #22 moss-forest layer. Adult cozy fantasy. No text/UI. Safe zones: bottom ~20%, side 5%, top-right calm.</desc>
  <defs>
    <linearGradient id="path" x1="0" y1="0" x2="0" y2="1">
      <stop offset="0%" stop-color="#3d3428" stop-opacity="0.55"/>
      <stop offset="100%" stop-color="#2a241c" stop-opacity="0.75"/>
    </linearGradient>
  </defs>
  <!-- transparent stage; mid sits over bg -->
  <!-- trunks -->
  <g stroke-linecap="round">
    <path d="M260 220 C270 420 250 620 255 820" fill="none" stroke="#2a1f16" stroke-width="48"/>
    <path d="M260 220 C270 420 250 620 255 820" fill="none" stroke="#3a2c20" stroke-width="28"/>
    <path d="M520 180 C535 400 510 640 518 860" fill="none" stroke="#241910" stroke-width="56"/>
    <path d="M520 180 C535 400 510 640 518 860" fill="none" stroke="#3d2e22" stroke-width="32"/>
    <path d="M980 150 C990 380 970 650 985 880" fill="none" stroke="#1f1710" stroke-width="64"/>
    <path d="M980 150 C990 380 970 650 985 880" fill="none" stroke="#35281c" stroke-width="36"/>
    <path d="M1380 200 C1365 430 1390 660 1375 870" fill="none" stroke="#241910" stroke-width="52"/>
    <path d="M1380 200 C1365 430 1390 660 1375 870" fill="none" stroke="#3a2c20" stroke-width="30"/>
    <path d="M1680 240 C1695 450 1675 680 1688 860" fill="none" stroke="#2a1f16" stroke-width="44"/>
    <path d="M1680 240 C1695 450 1675 680 1688 860" fill="none" stroke="#3d2e22" stroke-width="24"/>
  </g>
  <!-- moss on trunks -->
  <g fill="#3f5a3a" opacity="0.75">
    <ellipse cx="268" cy="480" rx="22" ry="40"/>
    <ellipse cx="530" cy="520" rx="26" ry="48"/>
    <ellipse cx="995" cy="560" rx="30" ry="55"/>
    <ellipse cx="1368" cy="500" rx="24" ry="42"/>
  </g>
  <!-- mossy rocks -->
  <g fill="#4a5540">
    <ellipse cx="640" cy="780" rx="90" ry="48"/>
    <ellipse cx="760" cy="800" rx="70" ry="38"/>
    <ellipse cx="1180" cy="790" rx="100" ry="50"/>
    <ellipse cx="420" cy="810" rx="60" ry="32"/>
  </g>
  <g fill="#5a6e4a" opacity="0.7">
    <ellipse cx="640" cy="760" rx="70" ry="28"/>
    <ellipse cx="1180" cy="770" rx="80" ry="30"/>
  </g>
  <!-- soft path through mid (keeps center readable, avoids bottom 20% detail) -->
  <path d="M860 620 C920 680 1000 720 1080 760 C1160 800 1240 820 1320 840" fill="none" stroke="url(#path)" stroke-width="120" stroke-linecap="round" opacity="0.5"/>
  <path d="M880 640 C940 700 1020 740 1100 775" fill="none" stroke="#6b5a42" stroke-width="28" stroke-linecap="round" opacity="0.35"/>

</svg>
