<?xml version="1.0" encoding="UTF-8"?>
<svg xmlns="http://www.w3.org/2000/svg" viewBox="0 0 1920 1080" width="1920" height="1080" role="img" aria-label="Mooswald Key Visual 16:9">
  <title>Mooswald Key Visual 16:9</title>
  <desc>Pomodoro DnD #22 moss-forest layer. Adult cozy fantasy. No text/UI. Safe zones: bottom ~20%, side 5%, top-right calm.</desc>
  <defs>
    <linearGradient id="sky" x1="0" y1="0" x2="0" y2="1">
      <stop offset="0%" stop-color="#1a2433"/>
      <stop offset="45%" stop-color="#243528"/>
      <stop offset="100%" stop-color="#2a3a2e"/>
    </linearGradient>
    <linearGradient id="haze" x1="0" y1="0" x2="0" y2="1">
      <stop offset="0%" stop-color="#6a7a82" stop-opacity="0"/>
      <stop offset="70%" stop-color="#6a7a82" stop-opacity="0.25"/>
      <stop offset="100%" stop-color="#4a5a52" stop-opacity="0.35"/>
    </linearGradient>
    <linearGradient id="path" x1="0" y1="0" x2="0" y2="1">
      <stop offset="0%" stop-color="#3d3428" stop-opacity="0.55"/>
      <stop offset="100%" stop-color="#2a241c" stop-opacity="0.75"/>
    </linearGradient>
    <linearGradient id="fogGrad" x1="0" y1="0" x2="0" y2="1">
      <stop offset="0%" stop-color="#9aaba8" stop-opacity="0.05"/>
      <stop offset="50%" stop-color="#8a9a96" stop-opacity="0.22"/>
      <stop offset="85%" stop-color="#7a8a86" stop-opacity="0.12"/>
      <stop offset="100%" stop-color="#6a7a76" stop-opacity="0.05"/>
    </linearGradient>
    <radialGradient id="glow1" cx="50%" cy="50%" r="50%">
      <stop offset="0%" stop-color="#d4a72c" stop-opacity="0.35"/>
      <stop offset="60%" stop-color="#d4a72c" stop-opacity="0.08"/>
      <stop offset="100%" stop-color="#d4a72c" stop-opacity="0"/>
    </radialGradient>
    <linearGradient id="shaft" x1="0" y1="0" x2="0" y2="1">
      <stop offset="0%" stop-color="#e8c56a" stop-opacity="0.22"/>
      <stop offset="100%" stop-color="#d4a72c" stop-opacity="0"/>
    </linearGradient>
  </defs>
  <!-- BG -->
  <rect width="1920" height="1080" fill="url(#sky)"/>
  <g fill="#1e2c24" opacity="0.85">
    <ellipse cx="180" cy="520" rx="140" ry="220"/>
    <ellipse cx="420" cy="500" rx="160" ry="250"/>
    <ellipse cx="680" cy="510" rx="150" ry="230"/>
    <ellipse cx="960" cy="490" rx="180" ry="270"/>
    <ellipse cx="1240" cy="505" rx="155" ry="240"/>
    <ellipse cx="1520" cy="515" rx="165" ry="235"/>
    <ellipse cx="1780" cy="530" rx="140" ry="210"/>
  </g>
  <g fill="#16241c" opacity="0.9">
    <ellipse cx="300" cy="540" rx="120" ry="200"/>
    <ellipse cx="560" cy="530" rx="130" ry="220"/>
    <ellipse cx="860" cy="520" rx="145" ry="245"/>
    <ellipse cx="1160" cy="535" rx="125" ry="215"/>
    <ellipse cx="1460" cy="545" rx="135" ry="205"/>
  </g>
  <path d="M0 380 C200 340 400 400 600 360 C800 320 1000 390 1200 350 C1400 310 1600 380 1920 340 L1920 0 L0 0 Z" fill="#121c18" opacity="0.55"/>
  <rect width="1920" height="1080" fill="url(#haze)"/>
  <!-- MID -->
  <g stroke-linecap="round">
    <path d="M260 220 C270 420 250 620 255 820" fill="none" stroke="#2a1f16" stroke-width="48"/>
    <path d="M260 220 C270 420 250 620 255 820" fill="none" stroke="#3a2c20" stroke-width="28"/>
    <path d="M520 180 C535 400 510 640 518 860" fill="none" stroke="#241910" stroke-width="56"/>
    <path d="M520 180 C535 400 510 640 518 860" fill="none" stroke="#3d2e22" stroke-width="32"/>
    <path d="M980 150 C990 380 970 650 985 880" fill="none" stroke="#1f1710" stroke-width="64"/>
    <path d="M980 150 C990 380 970 650 985 880" fill="none" stroke="#35281c" stroke-width="36"/>
    <path d="M1380 200 C1365 430 1390 660 1375 870" fill="none" stroke="#241910" stroke-width="52"/>
    <path d="M1380 200 C1365 430 1390 660 1375 870" fill="none" stroke="#3a2c20" stroke-width="30"/>
    <path d="M1680 240 C1695 450 1675 680 1688 860" fill="none" stroke="#2a1f16" stroke-width="44"/>
    <path d="M1680 240 C1695 450 1675 680 1688 860" fill="none" stroke="#3d2e22" stroke-width="24"/>
  </g>
  <g fill="#3f5a3a" opacity="0.75">
    <ellipse cx="268" cy="480" rx="22" ry="40"/>
    <ellipse cx="530" cy="520" rx="26" ry="48"/>
    <ellipse cx="995" cy="560" rx="30" ry="55"/>
    <ellipse cx="1368" cy="500" rx="24" ry="42"/>
  </g>
  <g fill="#4a5540">
    <ellipse cx="640" cy="780" rx="90" ry="48"/>
    <ellipse cx="760" cy="800" rx="70" ry="38"/>
    <ellipse cx="1180" cy="790" rx="100" ry="50"/>
    <ellipse cx="420" cy="810" rx="60" ry="32"/>
  </g>
  <g fill="#5a6e4a" opacity="0.7">
    <ellipse cx="640" cy="760" rx="70" ry="28"/>
    <ellipse cx="1180" cy="770" rx="80" ry="30"/>
  </g>
  <path d="M860 620 C920 680 1000 720 1080 760 C1160 800 1240 820 1320 840" fill="none" stroke="url(#path)" stroke-width="120" stroke-linecap="round" opacity="0.5"/>
  <path d="M880 640 C940 700 1020 740 1100 775" fill="none" stroke="#6b5a42" stroke-width="28" stroke-linecap="round" opacity="0.35"/>
  <!-- LIGHT -->
  <ellipse cx="720" cy="520" rx="90" ry="70" fill="url(#glow1)"/>
  <ellipse cx="1100" cy="480" rx="70" ry="55" fill="url(#glow1)"/>
  <path d="M680 120 L760 620 L700 620 Z" fill="url(#shaft)" opacity="0.55"/>
  <path d="M1060 100 L1130 560 L1080 560 Z" fill="url(#shaft)" opacity="0.4"/>
  <circle cx="600" cy="740" r="8" fill="#d4a72c" opacity="0.45"/>
  <circle cx="620" cy="755" r="5" fill="#e08a4c" opacity="0.4"/>
  <!-- FOG -->
  <ellipse cx="700" cy="640" rx="420" ry="120" fill="#a0b0aa" opacity="0.18"/>
  <ellipse cx="1200" cy="700" rx="480" ry="140" fill="#98a8a4" opacity="0.16"/>
  <ellipse cx="960" cy="580" rx="560" ry="100" fill="#a8b8b4" opacity="0.12"/>
  <rect width="1920" height="1080" fill="url(#fogGrad)"/>
  <!-- FG -->
  <g fill="#2d4a32" opacity="0.92">
    <path d="M40 900 C80 760 140 720 180 820 C120 780 90 860 40 900Z"/>
    <path d="M80 940 C140 780 220 740 260 860 C180 820 140 900 80 940Z"/>
    <path d="M120 980 C200 820 280 800 300 920 C220 880 180 960 120 980Z"/>
  </g>
  <g fill="#2a4530" opacity="0.92">
    <path d="M1880 900 C1840 760 1780 720 1740 820 C1800 780 1830 860 1880 900Z"/>
    <path d="M1840 940 C1780 780 1700 740 1660 860 C1740 820 1780 900 1840 940Z"/>
    <path d="M1800 980 C1720 820 1640 800 1620 920 C1700 880 1740 960 1800 980Z"/>
  </g>
  <g fill="#3a5c3e">
    <ellipse cx="200" cy="980" rx="160" ry="50"/>
    <ellipse cx="1720" cy="985" rx="150" ry="48"/>
    <ellipse cx="360" cy="1000" rx="100" ry="36"/>
    <ellipse cx="1560" cy="1005" rx="110" ry="38"/>
  </g>
  <g fill="none" stroke="#1a140e" stroke-width="10" stroke-linecap="round" opacity="0.7">
    <path d="M120 920 C200 940 240 960 280 1000"/>
    <path d="M1800 925 C1720 945 1680 965 1640 1005"/>
  </g>
  <rect x="0" y="980" width="1920" height="100" fill="#0f1410" opacity="0.35"/>

</svg>
